<svg width="18" height="20" viewBox="0 0 18 20" fill="none" xmlns="http://www.w3.org/2000/svg">
<path fill-rule="evenodd" clip-rule="evenodd" d="M16.0675 6.65655C15.7192 5.2727 14.5169 4.28686 13.1209 4.17704C13.0506 3.95595 12.97 3.73721 12.8778 3.52385C12.5779 2.82962 12.1385 2.15293 11.4911 1.64782C10.8315 1.13329 10.0022 0.833496 9.00033 0.833496C7.99843 0.833496 7.16912 1.13329 6.50961 1.64782C5.86219 2.15293 5.42274 2.82962 5.12283 3.52385C5.03066 3.73721 4.95008 3.95595 4.87973 4.17704C3.48377 4.28685 2.28143 5.27269 1.93312 6.65655C1.10234 9.95728 0.695338 12.3862 0.668424 14.1685C0.641705 15.938 0.987113 17.2395 1.85637 18.0819C2.71418 18.9133 3.89859 19.1123 5.05656 19.1563C5.64987 19.1789 6.28994 19.1612 6.943 19.1395L7.18241 19.1314C7.76882 19.1115 8.37186 19.0911 9.00033 19.0911C9.62878 19.0911 10.2317 19.1115 10.8181 19.1314L11.0576 19.1395C11.7107 19.1612 12.3508 19.1789 12.9441 19.1563C14.1021 19.1123 15.2865 18.9133 16.1443 18.0819C17.0135 17.2395 17.3589 15.938 17.3322 14.1685C17.3053 12.3862 16.8983 9.95728 16.0675 6.65655ZM6.08365 7.50017C6.08366 7.01836 6.1134 6.43289 6.20508 5.8335H11.7956C11.8872 6.43288 11.917 7.01836 11.917 7.50016C11.917 7.9604 12.2901 8.3335 12.7503 8.3335C13.2106 8.3335 13.5837 7.9604 13.5837 7.50016C13.5837 7.07135 13.5633 6.53763 13.4946 5.96048C13.9605 6.15501 14.324 6.55793 14.4513 7.06336C15.2732 10.3289 15.6418 12.6078 15.6657 14.1937C15.6899 15.7925 15.3614 16.5197 14.9844 16.8851C14.5959 17.2616 13.9616 17.4498 12.8808 17.4909C12.3547 17.5109 11.7704 17.4956 11.113 17.4738L10.876 17.4658C10.2917 17.4459 9.65909 17.4244 9.00033 17.4244C8.34151 17.4244 7.70893 17.4459 7.12462 17.4658L6.88762 17.4738C6.2303 17.4956 5.64597 17.5109 5.11989 17.4909C4.03908 17.4498 3.40477 17.2616 3.01629 16.8851C2.63924 16.5197 2.31076 15.7925 2.3349 14.1937C2.35885 12.6078 2.72746 10.3289 3.54938 7.06336C3.67659 6.55793 4.04016 6.155 4.5061 5.96047C4.43738 6.53762 4.41699 7.07134 4.41699 7.50016C4.41698 7.96039 4.79008 8.33349 5.25032 8.3335C5.71055 8.3335 6.08365 7.9604 6.08365 7.50017ZM10.4659 2.96188C10.8267 3.24342 11.116 3.65416 11.34 4.16683H6.66065C6.88467 3.65416 7.17394 3.24342 7.53481 2.96188C7.8878 2.68648 8.35224 2.50016 9.00033 2.50016C9.64842 2.50016 10.1129 2.68648 10.4659 2.96188Z" fill="#F56630"/>
</svg>
