<svg width="21" height="20" viewBox="0 0 21 20" fill="none" xmlns="http://www.w3.org/2000/svg">
<path fill-rule="evenodd" clip-rule="evenodd" d="M17.7335 6.65655C17.3852 5.2727 16.1829 4.28686 14.7869 4.17704C14.7166 3.95595 14.636 3.73721 14.5438 3.52385C14.2439 2.82962 13.8045 2.15293 13.1571 1.64782C12.4976 1.13329 11.6683 0.833496 10.6663 0.833496C9.66444 0.833496 8.83513 1.13329 8.17563 1.64782C7.5282 2.15293 7.08876 2.82962 6.78885 3.52385C6.69668 3.73721 6.6161 3.95595 6.54574 4.17704C5.14979 4.28685 3.94745 5.27269 3.59914 6.65655C2.76835 9.95728 2.36135 12.3862 2.33444 14.1685C2.30772 15.938 2.65313 17.2395 3.52238 18.0819C4.3802 18.9133 5.5646 19.1123 6.72257 19.1563C7.31589 19.1789 7.95596 19.1612 8.60902 19.1395L8.84842 19.1314C9.43484 19.1115 10.0379 19.0911 10.6663 19.0911C11.2948 19.0911 11.8977 19.1115 12.4841 19.1314L12.7237 19.1395C13.3767 19.1612 14.0168 19.1789 14.6101 19.1563C15.7681 19.1123 16.9525 18.9133 17.8103 18.0819C18.6795 17.2395 19.025 15.938 18.9982 14.1685C18.9713 12.3862 18.5643 9.95728 17.7335 6.65655ZM7.74967 7.50017C7.74967 7.01836 7.77942 6.43289 7.8711 5.8335H13.4616C13.5533 6.43288 13.583 7.01836 13.583 7.50016C13.583 7.9604 13.9561 8.3335 14.4163 8.3335C14.8766 8.3335 15.2497 7.9604 15.2497 7.50016C15.2497 7.07135 15.2293 6.53763 15.1606 5.96048C15.6265 6.15501 15.9901 6.55793 16.1173 7.06336C16.9392 10.3289 17.3078 12.6078 17.3318 14.1937C17.3559 15.7925 17.0274 16.5197 16.6504 16.8851C16.2619 17.2616 15.6276 17.4498 14.5468 17.4909C14.0207 17.5109 13.4364 17.4956 12.779 17.4738L12.542 17.4658C11.9578 17.4459 11.3251 17.4244 10.6663 17.4244C10.0075 17.4244 9.37494 17.4459 8.79064 17.4658L8.55364 17.4738C7.89631 17.4956 7.31198 17.5109 6.7859 17.4909C5.70509 17.4498 5.07079 17.2616 4.6823 16.8851C4.30526 16.5197 3.97678 15.7925 4.00092 14.1937C4.02486 12.6078 4.39347 10.3289 5.21539 7.06336C5.34261 6.55793 5.70617 6.155 6.17211 5.96047C6.1034 6.53762 6.08301 7.07134 6.083 7.50016C6.083 7.96039 6.45609 8.33349 6.91633 8.3335C7.37657 8.3335 7.74967 7.9604 7.74967 7.50017ZM12.1319 2.96188C12.4927 3.24342 12.782 3.65416 13.006 4.16683H8.32666C8.55068 3.65416 8.83996 3.24342 9.20082 2.96188C9.55382 2.68648 10.0183 2.50016 10.6663 2.50016C11.3144 2.50016 11.7789 2.68648 12.1319 2.96188Z" fill="black"/>
</svg>
