<svg width="31" height="32" viewBox="0 0 31 32" fill="none" xmlns="http://www.w3.org/2000/svg">
<path fill-rule="evenodd" clip-rule="evenodd" d="M16.577 6.31272C16.577 5.71824 16.0951 5.23633 15.5006 5.23633C14.9062 5.23633 14.4242 5.71824 14.4242 6.31272V6.92719C10.773 7.4493 7.96591 10.5884 7.96591 14.3845L7.96591 18.6904C7.96591 18.6904 7.96592 18.6903 7.96591 18.6904C7.96581 18.6925 7.96508 18.7069 7.96041 18.7352C7.95481 18.7691 7.94486 18.8152 7.92844 18.8745C7.89515 18.9947 7.84217 19.1444 7.76815 19.3214C7.61975 19.6762 7.41055 20.0847 7.17917 20.4969C6.74415 21.2718 6.52488 22.1953 6.6895 23.0734C6.8631 23.9995 7.45919 24.8071 8.47726 25.1948C9.38671 25.541 10.5973 25.8577 12.196 26.0462C12.234 26.0792 12.279 26.1169 12.3307 26.1582C12.4924 26.2876 12.7236 26.4554 13.0156 26.6223C13.5954 26.9535 14.4525 27.3023 15.5006 27.3023C16.5488 27.3023 17.4059 26.9535 17.9856 26.6223C18.2777 26.4554 18.5088 26.2876 18.6706 26.1582C18.7223 26.1169 18.7673 26.0792 18.8053 26.0462C20.404 25.8577 21.6146 25.541 22.524 25.1948C23.5421 24.8071 24.1382 23.9995 24.3118 23.0734C24.4764 22.1953 24.2571 21.2718 23.8221 20.4969C23.5907 20.0847 23.3815 19.6762 23.2331 19.3214C23.1591 19.1444 23.1061 18.9947 23.0728 18.8745C23.0564 18.8152 23.0465 18.7691 23.0409 18.7352C23.0362 18.7069 23.0355 18.6928 23.0354 18.6907C23.0354 18.6905 23.0354 18.6907 23.0354 18.6907L23.0354 18.6816V14.385C23.0354 10.589 20.2283 7.44939 16.577 6.9272V6.31272ZM10.1187 14.3845C10.1187 11.4123 12.528 9.00369 15.5006 9.00369C18.4731 9.00369 20.8826 11.4127 20.8826 14.385V18.6912C20.8826 19.1895 21.0693 19.727 21.247 20.152C21.4401 20.6137 21.6932 21.1023 21.9449 21.5507C22.1896 21.9867 22.248 22.3987 22.1959 22.6768C22.1527 22.9069 22.0377 23.0764 21.758 23.1829C20.601 23.6234 18.6479 24.0731 15.5006 24.0731C12.3534 24.0731 10.4003 23.6234 9.24331 23.1829C8.9636 23.0764 8.84856 22.9069 8.80542 22.6768C8.75329 22.3987 8.81165 21.9867 9.05639 21.5507C9.3081 21.1023 9.56115 20.6137 9.75425 20.152C9.93199 19.727 10.1187 19.1895 10.1187 18.6912V14.3845Z" fill="#CC400C"/>
</svg>
