<svg width="20" height="20" viewBox="0 0 20 20" fill="none" xmlns="http://www.w3.org/2000/svg">
<path d="M4.62765 9.07848C4.216 8.87266 4.04915 8.3721 4.25497 7.96045C4.46079 7.5488 4.96135 7.38195 5.373 7.58777L7.873 8.83777C8.28465 9.0436 8.45151 9.54416 8.24568 9.95581C8.03986 10.3675 7.5393 10.5343 7.12765 10.3285L4.62765 9.07848Z" fill="#CC400C"/>
<path d="M4.62765 11.5785C4.216 11.3727 4.04915 10.8721 4.25497 10.4604C4.46079 10.0488 4.96135 9.88195 5.373 10.0878L7.873 11.3378C8.28465 11.5436 8.45151 12.0442 8.24568 12.4558C8.03986 12.8675 7.5393 13.0343 7.12765 12.8285L4.62765 11.5785Z" fill="#CC400C"/>
<path d="M15.7457 7.96045C15.9515 8.3721 15.7847 8.87266 15.373 9.07848L12.873 10.3285C12.4614 10.5343 11.9608 10.3675 11.755 9.95581C11.5491 9.54416 11.716 9.0436 12.1276 8.83777L14.6276 7.58777C15.0393 7.38195 15.5399 7.5488 15.7457 7.96045Z" fill="#CC400C"/>
<path d="M15.7457 10.4604C15.9515 10.8721 15.7847 11.3727 15.373 11.5785L12.873 12.8285C12.4614 13.0343 11.9608 12.8675 11.755 12.4558C11.5491 12.0442 11.716 11.5436 12.1276 11.3378L14.6276 10.0878C15.0393 9.88195 15.5399 10.0488 15.7457 10.4604Z" fill="#CC400C"/>
<path fill-rule="evenodd" clip-rule="evenodd" d="M10.0003 16.6665C10.2921 17.447 10.2922 17.447 10.2922 17.447L10.2998 17.4441L10.3199 17.4366L10.3955 17.4079C10.4608 17.3829 10.5551 17.3466 10.6729 17.3004C10.9084 17.2082 11.2383 17.0764 11.6174 16.9178C12.3703 16.6029 13.3388 16.1733 14.1492 15.7315C15.0493 15.2408 16.3792 14.6804 17.1749 14.3585C17.8682 14.0781 18.3337 13.4052 18.3337 12.6459V4.64079C18.3337 3.43977 17.184 2.53925 16.0008 2.90286C15.2206 3.14265 14.1988 3.47896 13.4177 3.81907C12.6016 4.17437 11.6285 4.71643 10.8777 5.15675C10.5335 5.35864 10.2297 5.54289 10.0003 5.68407C9.77094 5.54289 9.46714 5.35864 9.12293 5.15675C8.37217 4.71643 7.39907 4.17437 6.58298 3.81907C5.8018 3.47896 4.78006 3.14265 3.99981 2.90286C2.81669 2.53925 1.66699 3.43977 1.66699 4.64079V12.6459C1.66699 13.4052 2.1325 14.0781 2.82575 14.3585C3.62148 14.6804 4.95139 15.2408 5.85144 15.7315C6.66185 16.1733 7.63037 16.6029 8.38324 16.9178C8.76239 17.0764 9.09227 17.2082 9.32773 17.3004C9.44553 17.3466 9.53989 17.3829 9.60519 17.4079L9.68071 17.4366L9.70084 17.4441L9.70779 17.4468C9.70785 17.4468 9.70852 17.447 10.0003 16.6665ZM3.5102 4.49599C3.43369 4.47247 3.33366 4.52403 3.33366 4.64079V12.6459C3.33366 12.7146 3.37643 12.7834 3.45072 12.8135C4.24582 13.1351 5.65612 13.7267 6.64921 14.2681C7.38414 14.6688 8.29063 15.0725 9.02641 15.3803C9.07411 15.4002 9.12101 15.4197 9.16699 15.4388V7.12824C8.94146 6.98911 8.63236 6.80121 8.27974 6.59439C7.5395 6.16024 6.6376 5.66063 5.91767 5.34719C5.22741 5.04666 4.28092 4.73285 3.5102 4.49599ZM10.8337 7.12824V15.4388C10.8796 15.4197 10.9265 15.4002 10.9742 15.3803C11.71 15.0725 12.6165 14.6688 13.3514 14.2681C14.3445 13.7267 15.7548 13.1351 16.5499 12.8135C16.6242 12.7834 16.667 12.7146 16.667 12.6459V4.64079C16.667 4.52404 16.567 4.47247 16.4904 4.49599C15.7197 4.73285 14.7732 5.04666 14.083 5.34719C13.363 5.66063 12.4611 6.16024 11.7209 6.59439C11.3683 6.80121 11.0592 6.98911 10.8337 7.12824Z" fill="#CC400C"/>
<path d="M10.0003 16.6665L10.2922 17.447C10.1041 17.5173 9.89597 17.5171 9.70779 17.4468L10.0003 16.6665Z" fill="#CC400C"/>
</svg>
