<svg width="20" height="18" viewBox="0 0 20 18" fill="none" xmlns="http://www.w3.org/2000/svg">
<path fill-rule="evenodd" clip-rule="evenodd" d="M1.07304 4.75463C1.09225 4.60033 1.12256 4.39409 1.18731 4.20459C1.22703 4.01184 1.31447 3.8578 1.39133 3.75072C1.49695 3.60357 1.6263 3.48346 1.74495 3.38838C1.98255 3.19798 2.2885 3.02065 2.60915 2.85858C3.25881 2.53021 4.11934 2.19027 5.00452 1.87382C6.78345 1.23784 8.77464 0.657237 9.64956 0.409172C10.1052 0.279984 10.5787 0.286099 11.03 0.425201C11.9017 0.693887 13.8889 1.31898 15.6631 1.96917C16.5467 2.29295 17.3999 2.63106 18.0409 2.94059C18.357 3.09326 18.654 3.25433 18.8833 3.41847C18.9963 3.49934 19.1244 3.60307 19.2324 3.73064C19.3041 3.81545 19.4199 3.97255 19.472 4.18948C19.5404 4.38307 19.5719 4.5962 19.5916 4.7546C19.6214 4.99383 19.6418 5.28275 19.6558 5.59886C19.684 6.23328 19.6888 7.02982 19.6805 7.8651C19.664 9.53854 19.5946 11.4124 19.5465 12.5527C19.505 13.5348 18.8886 14.3919 17.9829 14.7542L11.2608 17.443C10.6648 17.6814 9.99985 17.6814 9.40382 17.443L2.68172 14.7542C1.77602 14.3919 1.15962 13.5348 1.11815 12.5527C1.07001 11.4124 1.00066 9.53851 0.984117 7.86508C0.975859 7.02981 0.980615 6.23328 1.00881 5.59886C1.02286 5.28276 1.04326 4.99385 1.07304 4.75463ZM9.49892 15.686V8.31225C9.46768 8.30117 9.43661 8.28945 9.4057 8.27709L2.67792 5.58598L2.67384 5.67287C2.64763 6.26254 2.64255 7.02408 2.6507 7.84861C2.66698 9.49478 2.73541 11.3474 2.78333 12.4824C2.79681 12.8016 2.99704 13.0852 3.3007 13.2067L9.49892 15.686ZM11.1656 15.686V8.31229C11.1969 8.3012 11.228 8.28947 11.2589 8.27709L17.9867 5.58596L17.9908 5.67289C18.017 6.26255 18.0221 7.02409 18.014 7.84862C17.9977 9.49479 17.9292 11.3474 17.8813 12.4824C17.8678 12.8016 17.6676 13.0852 17.3639 13.2067L11.1656 15.686ZM15.0896 3.53407C15.7499 3.77603 16.3651 4.01624 16.8705 4.23738L14.5126 5.18054L8.39234 2.51658C9.10316 2.29974 9.71365 2.12336 10.1042 2.01263C10.2489 1.9716 10.394 1.97322 10.5391 2.01793C11.4041 2.28454 13.3575 2.89932 15.0896 3.53407ZM5.99676 3.29157L12.3364 6.05102L10.6399 6.72963C10.4412 6.8091 10.2234 6.8091 10.0247 6.72963L3.68094 4.19213C4.19982 3.95336 4.85436 3.69747 5.56559 3.44321C5.70803 3.39228 5.852 3.34168 5.99676 3.29157Z" fill="black"/>
</svg>
