<svg width="20" height="20" viewBox="0 0 20 20" fill="none" xmlns="http://www.w3.org/2000/svg">
<path d="M4.41042 12.4664C4.08498 12.7918 4.08498 13.3195 4.41042 13.6449C4.73586 13.9703 5.26349 13.9703 5.58893 13.6449L8.38948 10.8443L9.47256 11.7289C9.81289 12.0068 10.3106 11.9727 10.6098 11.651L13.3354 8.72103L14.3917 9.84781C14.7065 10.1836 15.2339 10.2006 15.5696 9.8858C15.9054 9.57103 15.9224 9.04366 15.6076 8.7079L13.941 6.93013C13.783 6.76167 13.5623 6.6663 13.3314 6.66674C13.1005 6.66719 12.8801 6.76343 12.7229 6.93249L9.92165 9.94378L8.86012 9.07686C8.52875 8.80623 8.04628 8.83052 7.74375 9.13304L4.41042 12.4664Z" fill="black"/>
<path fill-rule="evenodd" clip-rule="evenodd" d="M4.16634 2.5C2.32539 2.5 0.833008 3.99239 0.833008 5.83333V14.1667C0.833008 16.0076 2.32539 17.5 4.16634 17.5H15.833C17.674 17.5 19.1663 16.0076 19.1663 14.1667V5.83333C19.1663 3.99239 17.674 2.5 15.833 2.5H4.16634ZM2.49967 5.83333C2.49967 4.91286 3.24587 4.16667 4.16634 4.16667H15.833C16.7535 4.16667 17.4997 4.91286 17.4997 5.83333V14.1667C17.4997 15.0871 16.7535 15.8333 15.833 15.8333H4.16634C3.24587 15.8333 2.49967 15.0871 2.49967 14.1667V5.83333Z" fill="black"/>
</svg>
