<svg width="20" height="20" viewBox="0 0 20 20" fill="none" xmlns="http://www.w3.org/2000/svg">
<g clip-path="url(#clip0_6373_7904)">
<path fill-rule="evenodd" clip-rule="evenodd" d="M12.9395 7.76644C12.9184 6.50842 11.5642 5.7266 10.4642 6.33728L7.86724 7.77893C7.32908 8.07768 6.99939 8.64872 7.00975 9.26415L7.05971 12.234C7.08087 13.492 8.43501 14.2738 9.53508 13.6631L12.132 12.2215C12.6701 11.9227 12.9998 11.3517 12.9895 10.7363L12.9395 7.76644ZM8.67618 9.23612L11.2731 7.79447L11.3231 10.7643L8.72614 12.2059L8.67618 9.23612Z" fill="white"/>
<path fill-rule="evenodd" clip-rule="evenodd" d="M9.99967 0.833496C4.93706 0.833496 0.833008 4.93755 0.833008 10.0002C0.833008 15.0628 4.93706 19.1668 9.99967 19.1668C15.0623 19.1668 19.1663 15.0628 19.1663 10.0002C19.1663 4.93755 15.0623 0.833496 9.99967 0.833496ZM2.49967 10.0002C2.49967 5.85803 5.85754 2.50016 9.99967 2.50016C14.1418 2.50016 17.4997 5.85803 17.4997 10.0002C17.4997 14.1423 14.1418 17.5002 9.99967 17.5002C5.85754 17.5002 2.49967 14.1423 2.49967 10.0002Z" fill="white"/>
</g>
<defs>
<clipPath id="clip0_6373_7904">
<rect width="20" height="20" fill="white"/>
</clipPath>
</defs>
</svg>
