<svg width="14" height="19" viewBox="0 0 14 19" fill="none" xmlns="http://www.w3.org/2000/svg">
<path fill-rule="evenodd" clip-rule="evenodd" d="M6.99968 0.666504C4.69849 0.666504 2.83301 2.53198 2.83301 4.83317C2.83301 7.13436 4.69849 8.99984 6.99968 8.99984C9.30086 8.99984 11.1663 7.13436 11.1663 4.83317C11.1663 2.53198 9.30086 0.666504 6.99968 0.666504ZM4.49968 4.83317C4.49968 3.45246 5.61896 2.33317 6.99968 2.33317C8.38039 2.33317 9.49967 3.45246 9.49967 4.83317C9.49967 6.21388 8.38039 7.33317 6.99968 7.33317C5.61896 7.33317 4.49968 6.21388 4.49968 4.83317Z" fill="black"/>
<path fill-rule="evenodd" clip-rule="evenodd" d="M6.99967 18.1665C5.71592 18.1665 3.85786 17.875 2.46253 17.2643C1.77753 16.9645 1.08088 16.5354 0.676135 15.9143C0.463272 15.5877 0.328702 15.2029 0.333113 14.7733C0.337483 14.3477 0.47754 13.9399 0.712937 13.5605C1.8541 11.7212 4.18867 9.83317 6.99967 9.83317C9.81068 9.83317 12.1452 11.7212 13.2864 13.5605C13.5218 13.9399 13.6619 14.3477 13.6662 14.7733C13.6706 15.2029 13.5361 15.5877 13.3232 15.9143C12.9185 16.5354 12.2218 16.9645 11.5368 17.2643C10.1415 17.875 8.28342 18.1665 6.99967 18.1665ZM2.12917 14.4392C2.01944 14.616 2.00032 14.7296 1.99969 14.7905C1.99911 14.8474 2.01373 14.9142 2.07248 15.0044C2.21096 15.2169 2.54723 15.4821 3.13078 15.7375C4.27254 16.2372 5.89404 16.4998 6.99967 16.4998C8.10531 16.4998 9.7268 16.2372 10.8686 15.7375C11.4521 15.4821 11.7884 15.2169 11.9269 15.0044C11.9856 14.9142 12.0002 14.8474 11.9997 14.7905C11.999 14.7296 11.9799 14.616 11.8702 14.4392C10.9351 12.932 9.06995 11.4998 6.99967 11.4998C4.92939 11.4998 3.06429 12.932 2.12917 14.4392Z" fill="black"/>
</svg>
