<svg width="111" height="24" viewBox="0 0 111 24" fill="none" xmlns="http://www.w3.org/2000/svg">
<mask id="mask0_6233_428969" style="mask-type:alpha" maskUnits="userSpaceOnUse" x="0" y="0" width="24" height="24">
<rect width="24" height="24" fill="#E8562E"/>
</mask>
<g mask="url(#mask0_6233_428969)">
<path d="M5.16953 22.4803C4.4312 22.4803 3.80495 22.2232 3.29078 21.7091C2.77661 21.1949 2.51953 20.5687 2.51953 19.8303V8.29657C2.51953 7.55824 2.77661 6.93199 3.29078 6.41782C3.80495 5.90365 4.4312 5.64657 5.16953 5.64657H6.78803C6.78803 4.19724 7.29436 2.96624 8.30703 1.95357C9.3197 0.940904 10.5507 0.43457 12 0.43457C13.4494 0.43457 14.6804 0.940904 15.693 1.95357C16.7057 2.96624 17.212 4.19724 17.212 5.64657H18.8305C19.5689 5.64657 20.1951 5.90365 20.7093 6.41782C21.2234 6.93199 21.4805 7.55824 21.4805 8.29657V19.8303C21.4805 20.5687 21.2234 21.1949 20.7093 21.7091C20.1951 22.2232 19.5689 22.4803 18.8305 22.4803H5.16953ZM5.16953 19.8303H18.8305V8.29657H5.16953V19.8303ZM9.43803 5.64657H14.562C14.562 4.92624 14.3151 4.31915 13.8213 3.82532C13.3274 3.33149 12.7204 3.08457 12 3.08457C11.2797 3.08457 10.6726 3.33149 10.1788 3.82532C9.68495 4.31915 9.43803 4.92624 9.43803 5.64657ZM11.9893 14.5086C13.2791 14.5086 14.4358 14.1097 15.4593 13.3118C16.4828 12.514 16.9909 11.6067 16.9838 10.5901C16.9838 10.2126 16.8655 9.90257 16.629 9.66007C16.3925 9.41774 16.0915 9.29657 15.726 9.29657C15.4457 9.29657 15.2044 9.36924 15.0023 9.51457C14.8001 9.65974 14.6149 9.89182 14.4468 10.2108C14.2351 10.7122 13.9027 11.1121 13.4495 11.4106C12.9962 11.7092 12.5094 11.8586 11.9893 11.8586C11.4689 11.8586 10.9804 11.7117 10.5235 11.4178C10.0665 11.124 9.73587 10.7263 9.53153 10.2248C9.36337 9.88932 9.17936 9.65074 8.97953 9.50907C8.77953 9.3674 8.53962 9.29657 8.25978 9.29657C7.89162 9.29657 7.59286 9.41774 7.36353 9.66007C7.1342 9.90257 7.01953 10.2078 7.01953 10.5758C7.01953 11.5925 7.52536 12.5022 8.53703 13.3048C9.54853 14.1073 10.6993 14.5086 11.9893 14.5086Z" fill="#E8562E"/>
</g>
<path d="M42.8984 15.8047C42.8984 17.1953 42.4258 18.2422 41.4805 18.9453C40.5352 19.6484 39.1914 20 37.4492 20H32.5742V4.70703H37.1797C37.8203 4.70703 38.4492 4.76172 39.0664 4.87109C39.6836 4.97266 40.2344 5.16797 40.7188 5.45703C41.2109 5.74609 41.6094 6.15234 41.9141 6.67578C42.2188 7.19141 42.3711 7.86328 42.3711 8.69141C42.3711 9.46484 42.1719 10.1719 41.7734 10.8125C41.3828 11.4531 40.7891 11.9141 39.9922 12.1953C40.9688 12.5 41.6953 12.9258 42.1719 13.4727C42.6562 14.0195 42.8984 14.7969 42.8984 15.8047ZM39.9688 9.00781C39.9688 8.5625 39.8828 8.19922 39.7109 7.91797C39.5469 7.63672 39.332 7.42188 39.0664 7.27344C38.8008 7.11719 38.5039 7.01562 38.1758 6.96875C37.8477 6.92188 37.5156 6.89844 37.1797 6.89844H35V11.1172H37.1797C37.5156 11.1172 37.8477 11.0938 38.1758 11.0469C38.5039 11 38.8008 10.9023 39.0664 10.7539C39.332 10.5977 39.5469 10.3789 39.7109 10.0977C39.8828 9.81641 39.9688 9.45312 39.9688 9.00781ZM40.4961 15.5586C40.4961 14.793 40.2266 14.2266 39.6875 13.8594C39.1562 13.4922 38.4102 13.3086 37.4492 13.3086H35V17.8203H37.4492C38.4102 17.8203 39.1562 17.6367 39.6875 17.2695C40.2266 16.8945 40.4961 16.3242 40.4961 15.5586ZM45.0547 16.8594C45.0547 16.2188 45.2266 15.6602 45.5703 15.1836C45.9141 14.6992 46.3633 14.2969 46.918 13.9766C47.4805 13.6562 48.1211 13.418 48.8398 13.2617C49.5664 13.0977 50.3047 13.0156 51.0547 13.0156C51.4688 13.0156 51.8242 13.0234 52.1211 13.0391C52.418 13.0547 52.7188 13.0781 53.0234 13.1094V12.6758C53.0234 12.1055 52.8008 11.6797 52.3555 11.3984C51.918 11.1172 51.3398 10.9766 50.6211 10.9766C49.9648 10.9766 49.2969 11.0703 48.6172 11.2578C47.9375 11.4375 47.293 11.7031 46.6836 12.0547L45.6992 10.1562C46.418 9.74219 47.1875 9.41797 48.0078 9.18359C48.8359 8.94141 49.707 8.82031 50.6211 8.82031C51.2148 8.82031 51.7969 8.88672 52.3672 9.01953C52.9453 9.15234 53.4609 9.37109 53.9141 9.67578C54.375 9.98047 54.7422 10.3789 55.0156 10.8711C55.2891 11.3555 55.4258 11.957 55.4258 12.6758V20H53.0234V18.3945C52.6406 18.9883 52.0742 19.4492 51.3242 19.7773C50.582 20.1055 49.7812 20.2695 48.9219 20.2695C48.3906 20.2695 47.8867 20.1953 47.4102 20.0469C46.9414 19.9062 46.5352 19.6914 46.1914 19.4023C45.8477 19.1133 45.5703 18.7578 45.3594 18.3359C45.1562 17.9062 45.0547 17.4141 45.0547 16.8594ZM49.543 18.1016C50.0195 18.1016 50.4648 18.043 50.8789 17.9258C51.3008 17.8008 51.6719 17.6328 51.9922 17.4219C52.3125 17.2031 52.5625 16.9414 52.7422 16.6367C52.9297 16.332 53.0234 15.9961 53.0234 15.6289V15.2188C52.6406 15.1562 52.2812 15.1211 51.9453 15.1133C51.6094 15.1055 51.3125 15.1016 51.0547 15.1016C49.8672 15.1016 48.9688 15.2578 48.3594 15.5703C47.7578 15.8828 47.457 16.2695 47.457 16.7305C47.457 17.6445 48.1523 18.1016 49.543 18.1016ZM68.8555 11.668C68.5664 11.5273 68.2695 11.4219 67.9648 11.3516C67.668 11.2734 67.3242 11.2344 66.9336 11.2344C66.3945 11.2344 65.8867 11.3164 65.4102 11.4805C64.9414 11.6367 64.5352 11.875 64.1914 12.1953C63.8477 12.5156 63.5781 12.918 63.3828 13.4023C63.1953 13.8789 63.1016 14.4453 63.1016 15.1016V17.8203H65.5508V20H58.2031V17.8203H60.6758V11.2695H58.2031V9.07812H63.1016V11.8203C63.5 10.7266 64.0859 9.95312 64.8594 9.5C65.6406 9.04688 66.5664 8.82031 67.6367 8.82031C67.9727 8.82031 68.3242 8.85547 68.6914 8.92578C69.0586 8.99609 69.418 9.12109 69.7695 9.30078L68.8555 11.668ZM81.957 11.668C81.668 11.5273 81.3711 11.4219 81.0664 11.3516C80.7695 11.2734 80.4258 11.2344 80.0352 11.2344C79.4961 11.2344 78.9883 11.3164 78.5117 11.4805C78.043 11.6367 77.6367 11.875 77.293 12.1953C76.9492 12.5156 76.6797 12.918 76.4844 13.4023C76.2969 13.8789 76.2031 14.4453 76.2031 15.1016V17.8203H78.6523V20H71.3047V17.8203H73.7773V11.2695H71.3047V9.07812H76.2031V11.8203C76.6016 10.7266 77.1875 9.95312 77.9609 9.5C78.7422 9.04688 79.668 8.82031 80.7383 8.82031C81.0742 8.82031 81.4258 8.85547 81.793 8.92578C82.1602 8.99609 82.5195 9.12109 82.8711 9.30078L81.957 11.668ZM86.6328 15.4648C86.75 16.2148 87.1055 16.8398 87.6992 17.3398C88.3008 17.832 89.1055 18.0781 90.1133 18.0781C90.9023 18.0781 91.5859 17.957 92.1641 17.7148C92.75 17.4648 93.2539 17.1367 93.6758 16.7305L94.918 18.4414C94.2148 19.1445 93.4688 19.625 92.6797 19.8828C91.8984 20.1406 91.043 20.2695 90.1133 20.2695C89.2695 20.2695 88.4844 20.1289 87.7578 19.8477C87.0312 19.5664 86.4023 19.1758 85.8711 18.6758C85.3398 18.168 84.9219 17.5664 84.6172 16.8711C84.3203 16.1758 84.1719 15.4023 84.1719 14.5508C84.1719 13.7227 84.3086 12.9609 84.582 12.2656C84.8633 11.5625 85.2539 10.957 85.7539 10.4492C86.2617 9.93359 86.8672 9.53516 87.5703 9.25391C88.2734 8.96484 89.0508 8.82031 89.9023 8.82031C90.7852 8.82031 91.5859 8.97266 92.3047 9.27734C93.0234 9.57422 93.6367 10.0078 94.1445 10.5781C94.6602 11.1484 95.0625 11.8477 95.3516 12.6758C95.6406 13.4961 95.7852 14.4258 95.7852 15.4648H86.6328ZM93.043 13.332C92.918 12.6289 92.5547 12.0664 91.9531 11.6445C91.3516 11.2148 90.668 11 89.9023 11C89.1367 11 88.4492 11.2148 87.8398 11.6445C87.2305 12.0664 86.8633 12.6289 86.7383 13.332H93.043ZM106.695 20H99.3594V17.8203H101.75V6.89844H99.3594V4.70703H104.176V17.8203H106.695V20Z" fill="black"/>
</svg>
