<svg width="134" height="26" viewBox="0 0 134 26" fill="none" xmlns="http://www.w3.org/2000/svg">
<path d="M38.3943 5.21947L38.4031 5.09049H38.5225V2.84044V2.75222L38.4403 2.72024C38.0294 2.56041 37.5325 2.49846 37.0138 2.49846C34.9504 2.49846 33.3442 3.45342 32.5235 5.11744V2.87065V2.74166H32.3945H29.875H29.746V2.87065V18.2569V18.3859H29.875H32.3945H32.5235V18.2569V10.3814C32.5235 8.59031 32.9469 7.2804 33.717 6.41921C34.4849 5.56046 35.6154 5.12807 37.0742 5.12807C37.4802 5.12807 37.862 5.153 38.2645 5.20358V5.21947H38.3935H38.3943Z" fill="#101928" stroke="#101928" stroke-width="0.257966"/>
<path d="M54.4434 18.3866H54.5724V18.2576V3.0003V2.87132V2.87052H54.4434V2.74234H51.9239H51.795V2.87132V5.16188C50.7765 3.41011 48.6916 2.31633 46.3143 2.31633C42.0606 2.31633 38.956 5.76254 38.956 10.5641C38.956 15.3656 42.0606 18.8126 46.3143 18.8126C48.6916 18.8126 50.7765 17.7188 51.795 15.967V18.2576V18.3866H51.9239H54.4434ZM50.5067 6.51286L50.5067 6.51287L50.508 6.51439C51.4429 7.55059 51.915 8.9166 51.915 10.5633C51.915 12.2099 51.4429 13.5759 50.508 14.6121L50.5067 14.6137C49.6034 15.6475 48.3802 16.1814 46.8842 16.1814C45.3889 16.1814 44.165 15.6479 43.2308 14.6129C42.3254 13.5762 41.8534 12.2096 41.8534 10.5633C41.8534 8.91693 42.3254 7.55027 43.2309 6.51363C44.165 5.47859 45.3889 4.94514 46.8842 4.94514C48.3802 4.94514 49.6034 5.47906 50.5067 6.51286Z" fill="#101928" stroke="#101928" stroke-width="0.257966"/>
<path d="M71.0054 2.87061V2.74162H70.8765H70.8749H68.3554H68.2264V2.87061V11.5974C68.2264 12.8392 67.7461 13.8758 66.9345 14.6032C66.1217 15.3315 64.969 15.7563 63.6161 15.7563C62.4538 15.7563 61.6271 15.4438 61.0864 14.7989C60.5414 14.1488 60.2655 13.1363 60.2655 11.6888V2.87061V2.74162H60.1365H57.617H57.488V2.87061V12.2968C57.488 14.2489 57.9962 15.7741 58.9508 16.8123C59.9069 17.8521 61.2947 18.3859 63.0168 18.3859C65.3345 18.3859 67.2364 17.4499 68.2272 15.75V16.7667C68.2272 18.618 67.7818 19.9888 66.9668 20.8958C66.1539 21.8005 64.9557 22.2632 63.407 22.2632C61.6359 22.2632 59.9281 21.6349 58.7246 20.5334L58.6233 20.4406L58.5371 20.5476L57.0675 22.3725L56.9961 22.4611L57.0752 22.543C58.5156 24.0345 60.8928 24.8936 63.4674 24.8936C65.8332 24.8936 67.7233 24.1859 69.0209 22.8044C70.3173 21.4241 71.0054 19.3891 71.0054 16.7675V2.87061Z" fill="#101928" stroke="#101928" stroke-width="0.257966"/>
<path d="M87.2783 18.3869H87.4073V18.2579V18.2571V8.40493C87.4073 6.48349 86.9143 4.95854 85.9675 3.91276C85.019 2.86508 83.631 2.31584 81.8785 2.31584C79.5679 2.31584 77.6942 3.24683 76.7285 4.9385V2.87083V2.74185H76.5996H74.0801H73.9511V2.87083V18.2579V18.3869H74.0801H76.5996H76.7285V18.2579V9.10514C76.7285 7.84719 77.2022 6.81072 78.0024 6.08766C78.8038 5.36353 79.9412 4.94625 81.2793 4.94625C82.4567 4.94625 83.2829 5.25892 83.8197 5.90333C84.3611 6.55317 84.6298 7.56549 84.6298 9.01374V18.2579V18.3869H84.7588H87.2783Z" fill="#101928" stroke="#101928" stroke-width="0.257966"/>
<path d="M105.336 18.3866H105.465V18.2576V3.0003V2.87132V2.87052H105.336V2.74234H102.817H102.688V2.87132V5.16188C101.669 3.41011 99.5842 2.31633 97.2069 2.31633C92.9532 2.31633 89.8486 5.76254 89.8486 10.5641C89.8486 15.3656 92.9532 18.8126 97.2069 18.8126C99.5842 18.8126 101.669 17.7188 102.688 15.967V18.2576V18.3866H102.817H105.336ZM101.399 6.51286L101.399 6.51287L101.401 6.51439C102.335 7.55059 102.808 8.9166 102.808 10.5633C102.808 12.2099 102.335 13.5759 101.401 14.6121L101.399 14.6137C100.496 15.6475 99.2728 16.1814 97.7768 16.1814C96.2815 16.1814 95.0576 15.6479 94.1234 14.6129C93.218 13.5762 92.746 12.2096 92.746 10.5633C92.746 8.91693 93.218 7.55027 94.1234 6.51363C95.0576 5.47859 96.2815 4.94514 97.7768 4.94514C99.2728 4.94514 100.496 5.47906 101.399 6.51286Z" fill="#101928" stroke="#101928" stroke-width="0.257966"/>
<path d="M116.903 2.87061V2.74162H116.774H114.255H114.253H114.124V2.87061V12.5106C114.124 14.3669 114.788 15.9452 115.96 17.0589C117.131 18.1722 118.799 18.8127 120.792 18.8127C122.785 18.8127 124.454 18.1722 125.625 17.0589C126.796 15.9452 127.461 14.3669 127.461 12.5106V2.87061V2.74162H127.332H124.812H124.683V2.87061V12.358C124.683 13.6106 124.324 14.5617 123.669 15.2002C123.014 15.8391 122.045 16.1823 120.793 16.1823C119.541 16.1823 118.573 15.8391 117.918 15.2002C117.263 14.5617 116.903 13.6106 116.903 12.358V2.87061Z" fill="#101928" stroke="#101928" stroke-width="0.257966"/>
<path d="M130.708 2.74162H130.579V2.87061V18.2577V18.3867H130.708H133.227H133.356V18.2577V2.87061V2.74162H133.227H130.708Z" fill="#101928" stroke="#101928" stroke-width="0.257966"/>
<path d="M18.6036 13.2666L17.2532 11.9162C17.2191 11.8821 17.231 11.8248 17.2747 11.8058C17.7516 11.5999 18.1974 11.3345 18.6036 11.0205C18.749 10.9077 18.8889 10.7892 19.0232 10.6644C19.4151 10.3004 19.7592 9.88635 20.0453 9.43173C20.0461 9.43014 20.0469 9.42935 20.0477 9.42776C20.221 9.15197 20.3736 8.86108 20.5023 8.55826C20.8131 7.82706 20.9863 7.02353 20.9895 6.17947C20.9895 6.17947 20.9895 6.17867 20.9895 6.17788C20.9895 6.16993 20.9895 6.16198 20.9895 6.15403C20.9895 5.31076 20.8202 4.50803 20.5134 3.77603C20.4109 3.53044 20.2925 3.2928 20.1598 3.0647C20.1598 3.06311 20.1582 3.06231 20.1582 3.06152C19.5613 2.03624 18.6767 1.20013 17.6157 0.662057C17.6117 0.659673 17.6069 0.657289 17.6029 0.655699C16.7819 0.241615 15.3942 0.00635829 14.4135 0C14.3999 0 14.849 0 14.8355 0C14.822 0 14.8093 0 14.7958 0H1.83357C0.821015 0 0 0.821015 0 1.83357V14.9078C0 15.3314 0.0429185 15.7455 0.124782 16.1453C0.124782 16.1461 0.124782 16.1469 0.124782 16.1485C0.277381 16.894 0.565093 17.591 0.960897 18.2117C0.960897 18.2133 0.962487 18.2141 0.963282 18.2157C1.62613 19.2545 2.59259 20.0811 3.73709 20.5699C3.74106 20.5715 3.74503 20.5731 3.74901 20.5746C3.75775 20.5786 3.76729 20.5826 3.77603 20.5866C4.36497 20.8337 5 20.9911 5.66524 21.0436C5.82658 21.0563 5.98872 21.0626 6.15324 21.0626C7.00207 21.0626 7.81037 20.891 8.54555 20.5802C9.06454 20.3608 9.54777 20.0723 9.98332 19.7258C9.98411 19.7258 9.98491 19.725 9.9857 19.7242C9.99365 19.7179 10.0024 19.7115 10.0103 19.7044C10.0127 19.7028 10.0151 19.7004 10.0175 19.6988C10.581 19.2434 11.0626 18.691 11.4362 18.0663C11.9655 17.1817 12.2795 16.154 12.3049 15.0548V15.0525C12.3057 15.0048 12.3065 14.9571 12.3065 14.9094C12.3065 14.8617 12.3065 14.814 12.3049 14.7663V12.5688C12.3049 12.4742 12.4193 12.4265 12.4861 12.4933L18.0591 18.0663L19.3634 19.3705C19.965 19.9722 20.9927 19.5462 20.9927 18.6958V16.3408C20.9927 15.9053 20.8194 15.4872 20.5111 15.1788L18.6004 13.2682L18.6036 13.2666ZM14.8331 8.55826H8.96281C8.73312 8.55826 8.54634 8.74424 8.54634 8.97473V14.9595V14.9603C8.47084 16.6389 6.78192 17.7261 5.23129 17.0768C4.39358 16.7263 3.8269 15.918 3.77603 15.0032V4.14322C3.77603 3.94294 3.93896 3.78001 4.13925 3.78001L9.15753 3.77683C9.15753 3.77683 9.15753 3.77842 9.15674 3.77921C10.2098 3.77921 11.2971 3.77921 12.3065 3.77921C13.2491 3.77921 14.1242 3.77921 14.8395 3.7808C16.1342 3.78239 17.2024 4.86012 17.2071 6.15085C17.2119 7.47417 16.162 8.53998 14.8331 8.55906V8.55826Z" fill="#E8562E"/>
</svg>
