<svg width="20" height="16" viewBox="0 0 20 16" fill="none" xmlns="http://www.w3.org/2000/svg">
<path fill-rule="evenodd" clip-rule="evenodd" d="M5.83301 15.5C6.92152 15.5 7.84756 14.8043 8.19075 13.8333H13.4753C13.8185 14.8043 14.7445 15.5 15.833 15.5C16.9215 15.5 17.8476 14.8043 18.1908 13.8333H18.333C18.7932 13.8333 19.1663 13.4602 19.1663 13V10.1972C19.1663 9.73081 19.0685 9.2696 18.879 8.84341L18.0877 7.06287C17.5527 5.85911 16.359 5.08333 15.0417 5.08333H13.333V3.83333C13.333 1.99238 11.8406 0.5 9.99967 0.5H4.16634C2.32539 0.5 0.833008 1.99238 0.833008 3.83333V12.1667C0.833008 13.0871 1.5792 13.8333 2.49967 13.8333H3.47526C3.81846 14.8043 4.74449 15.5 5.83301 15.5ZM2.49967 3.83333C2.49967 2.91286 3.24587 2.16667 4.16634 2.16667H9.99967C10.9201 2.16667 11.6663 2.91286 11.6663 3.83333V12.1667H8.19075C7.84756 11.1957 6.92152 10.5 5.83301 10.5C4.74449 10.5 3.81846 11.1957 3.47526 12.1667H2.49967V3.83333ZM17.356 9.5203C17.4507 9.7334 17.4997 9.96401 17.4997 10.1972V11.1366C17.0574 10.7407 16.4733 10.5 15.833 10.5C14.7445 10.5 13.8185 11.1957 13.4753 12.1667H13.333V6.75H15.0417C15.7003 6.75 16.2972 7.13789 16.5647 7.73977L17.356 9.5203ZM4.99967 13C4.99967 12.5398 5.37277 12.1667 5.83301 12.1667C6.29324 12.1667 6.66634 12.5398 6.66634 13C6.66634 13.4602 6.29324 13.8333 5.83301 13.8333C5.37277 13.8333 4.99967 13.4602 4.99967 13ZM14.9997 13C14.9997 12.5398 15.3728 12.1667 15.833 12.1667C16.2932 12.1667 16.6663 12.5398 16.6663 13C16.6663 13.4602 16.2932 13.8333 15.833 13.8333C15.3728 13.8333 14.9997 13.4602 14.9997 13Z" fill="black"/>
</svg>
