<svg width="4" height="17" viewBox="0 0 4 17" fill="none" xmlns="http://www.w3.org/2000/svg">
<path d="M3.25 1.8335C3.25 2.52385 2.69036 3.0835 2 3.0835C1.30964 3.0835 0.75 2.52385 0.75 1.8335C0.75 1.14314 1.30964 0.583496 2 0.583496C2.69036 0.583496 3.25 1.14314 3.25 1.8335Z" fill="black"/>
<path d="M3.25 8.50016C3.25 9.19052 2.69036 9.75016 2 9.75016C1.30964 9.75016 0.75 9.19052 0.75 8.50016C0.75 7.80981 1.30964 7.25016 2 7.25016C2.69036 7.25016 3.25 7.80981 3.25 8.50016Z" fill="black"/>
<path d="M2 16.4168C2.69036 16.4168 3.25 15.8572 3.25 15.1668C3.25 14.4765 2.69036 13.9168 2 13.9168C1.30964 13.9168 0.75 14.4765 0.75 15.1668C0.75 15.8572 1.30964 16.4168 2 16.4168Z" fill="black"/>
</svg>
